<?xml version="1.0" encoding="UTF-8" ?>
<!DOCTYPE svg PUBLIC "-//W3C//DTD SVG 1.1//EN" "http://www.w3.org/Graphics/SVG/1.1/DTD/svg11.dtd">
<svg width="547pt" height="471pt" viewBox="0 0 547 471" version="1.1" xmlns="http://www.w3.org/2000/svg">
<g id="#5fbf00ff">
<path fill="#5fbf00" opacity="1.00" d=" M 111.13 9.39 C 117.60 8.84 123.47 11.94 129.54 13.62 C 168.10 25.59 205.60 41.62 239.46 63.76 C 255.52 74.91 271.23 86.91 284.08 101.75 C 286.80 104.68 289.93 107.19 292.50 110.25 C 298.52 117.85 303.43 126.22 308.48 134.47 C 314.97 145.19 319.33 157.01 323.07 168.92 C 325.82 177.87 326.89 187.19 328.39 196.39 C 328.44 208.59 329.20 220.88 327.56 233.00 C 326.02 249.46 323.54 266.24 316.13 281.22 C 313.85 286.29 310.97 291.10 307.12 295.14 C 305.53 296.69 304.33 299.88 306.56 301.39 C 312.72 306.34 318.33 311.98 324.98 316.29 C 329.32 319.56 333.52 323.03 338.04 326.06 C 339.41 326.95 341.47 326.78 341.81 324.89 C 344.22 318.42 347.44 312.28 349.80 305.80 C 348.76 304.88 347.16 305.41 346.33 306.33 C 343.93 308.62 341.91 311.27 339.89 313.89 C 338.51 312.23 337.05 310.54 336.51 308.41 C 334.85 302.64 332.36 296.96 332.43 290.85 C 331.35 282.06 330.86 273.06 332.34 264.28 C 333.18 252.41 337.85 241.23 342.62 230.47 C 346.43 223.75 349.55 216.52 354.74 210.70 C 370.08 188.95 390.77 171.58 412.91 157.09 C 423.71 149.69 435.10 143.21 446.70 137.16 C 465.32 127.86 482.87 116.29 498.33 102.32 C 510.63 90.46 521.74 76.87 528.04 60.81 C 530.52 55.49 530.84 49.50 532.96 44.06 C 534.09 42.04 535.89 44.38 536.11 45.80 C 537.03 50.73 535.98 55.85 536.95 60.79 C 537.73 64.08 537.29 67.50 537.90 70.81 C 539.03 75.91 538.00 81.21 539.33 86.29 C 539.76 95.85 539.12 105.48 540.35 115.00 C 538.71 124.93 540.30 135.05 538.86 145.01 C 539.05 152.97 536.90 160.71 536.47 168.63 C 534.98 181.29 532.81 193.88 529.29 206.15 C 521.98 235.31 509.65 263.87 489.56 286.55 C 476.60 302.42 459.55 314.89 440.63 322.72 C 430.33 327.52 419.27 330.27 408.42 333.49 C 402.37 335.29 396.06 335.72 389.90 336.95 C 385.63 337.97 381.19 337.02 376.93 337.86 C 371.79 340.10 367.65 344.04 362.97 347.04 C 348.28 356.88 333.85 367.38 317.67 374.69 C 315.78 375.45 313.11 377.42 314.84 379.63 C 318.52 379.49 322.05 378.14 325.77 378.32 C 325.60 381.76 324.47 385.02 323.33 388.24 C 317.56 403.37 307.39 416.66 294.94 426.92 C 291.23 430.28 286.66 432.47 282.87 435.72 C 275.31 438.79 268.23 443.00 260.38 445.35 C 254.75 446.86 249.28 449.16 243.40 449.52 C 235.90 450.18 228.63 452.83 221.04 452.53 C 210.35 452.51 199.66 452.65 188.97 452.53 C 185.26 452.57 181.70 451.24 177.98 451.50 C 172.83 451.93 168.05 449.54 162.95 449.42 C 157.34 449.32 152.15 446.85 146.59 446.38 C 136.03 444.37 125.59 441.80 115.06 439.73 C 109.94 439.77 105.14 437.52 100.03 437.54 C 90.99 437.82 82.06 435.56 73.01 436.81 C 69.04 437.60 64.97 437.29 60.98 437.79 C 47.63 440.84 34.08 444.18 22.25 451.35 C 17.31 454.54 13.66 459.59 8.04 461.74 C 8.48 459.64 9.17 457.59 10.33 455.78 C 25.94 430.49 42.68 405.75 62.52 383.56 C 70.21 374.59 78.60 366.26 87.03 357.99 C 95.74 348.81 106.25 341.63 116.21 333.91 C 136.41 319.56 158.79 307.80 182.98 301.98 C 191.27 300.50 199.61 299.30 208.00 298.58 C 231.25 297.54 254.29 303.90 275.18 313.76 C 287.52 319.08 299.29 325.84 309.84 334.18 C 317.01 340.22 324.15 346.93 327.70 355.82 C 333.65 355.55 338.10 350.91 342.03 346.96 C 336.86 345.15 335.25 339.53 330.97 336.63 C 326.98 333.81 323.47 330.40 319.66 327.36 C 318.56 326.29 317.05 326.01 315.59 325.96 C 316.47 325.31 317.36 324.65 318.24 324.00 C 316.95 323.65 315.43 323.67 314.49 322.59 C 307.21 315.16 299.08 308.63 291.94 301.05 C 287.53 297.34 284.57 292.01 279.55 289.07 C 278.16 294.13 283.60 297.58 282.83 302.63 C 278.82 302.48 274.81 302.64 270.80 302.44 C 252.66 299.75 235.13 291.92 221.78 279.22 C 211.22 270.23 202.30 259.22 196.26 246.70 C 189.76 235.60 184.90 223.63 180.25 211.67 C 174.38 189.10 168.80 166.34 166.14 143.12 C 164.68 136.51 166.28 129.66 164.93 123.03 C 162.22 103.91 159.56 84.53 152.49 66.44 C 146.70 49.85 137.49 34.39 125.50 21.53 C 121.32 16.71 114.54 14.99 111.13 9.39 Z" />
</g>
</svg>
